<svg xmlns="http://www.w3.org/2000/svg" width="32" height="32" viewBox="0 0 32 32">
  <g fill="#212121">
    <path d="M21.4472136,17.6910874 L23.4898478,18.6268899 C24.3870115,19.0754718 25.0006264,19.9427535 25.1203758,20.9051931 L25.7112692,24.6278958 C25.9167767,26.2719556 24.7505996,27.7713262 23.1065398,27.9768336 C22.9831053,27.9922629 22.8588306,28 22.7344356,28 L9.26556444,28 C7.60871019,28 6.26556444,26.6568542 6.26556444,25 C6.26556444,24.8756049 6.2733015,24.7513303 6.29275141,24.5991314 L6.94134075,20.4070163 C7.02428357,19.7434737 7.43336014,19.1652859 8.05756563,18.8536524 L10.5527864,17.6955997 C11.148196,17.3978949 11.4922363,17.5431502 12.1583028,17.9925034 C12.2567681,18.0589317 12.6232236,18.3161868 12.6481468,18.3334542 C12.8531797,18.4755057 13.0253182,18.5888531 13.2031093,18.6966485 C14.0956441,19.237795 14.9756796,19.531051 16.0001053,19.531051 C17.1022459,19.531051 18.1246193,19.2190657 19.0728056,18.6862148 C19.4073629,18.4982042 19.7003619,18.301747 19.9960905,18.0791551 C20.0707786,18.0229381 20.2712571,17.8678641 20.2771849,17.8633542 C20.3379066,17.8173002 20.3755033,17.7900195 20.4220633,17.760079 C20.477814,17.7244776 20.477814,17.7244776 20.5927266,17.6686593 C20.7657057,17.5719534 20.7657057,17.5719534 21.4472136,17.6910874 Z"/>
    <path d="M16,18 C12.6862915,18 10,15.3137085 10,12 C10,8.6862915 12.6862915,6 16,6 C19.3137085,6 22,8.6862915 22,12 C22,15.3137085 19.3137085,18 16,18 Z"/>
  </g>
</svg>
