<?xml version="1.0"?>
<!DOCTYPE svg PUBLIC "-//W3C//DTD SVG 1.1//EN" "http://www.w3.org/Graphics/SVG/1.1/DTD/svg11.dtd">
<svg xmlns="http://www.w3.org/2000/svg" xmlns:xl="http://www.w3.org/1999/xlink" version="1.1" viewBox="137 152 25 25" width="25pt" height="25pt"><metadata xmlns:dc="http://purl.org/dc/elements/1.1/"><dc:date>2016-02-22 10:23Z</dc:date><!-- Produced by OmniGraffle Professional 5.4.4 --></metadata><defs></defs><g stroke="none" stroke-opacity="1" stroke-dasharray="none" fill="none" fill-opacity="1"><title>Canvas 1</title><g><title>Layer 1</title><circle cx="149.25" cy="164.75" r="12.25002" fill="#167afe"/><path d="M 145.64945 159.403315 L 152.85055 159.403315 C 153.70234 159.403315 154.39365 162.28376 154.39365 165.83287 C 154.39365 169.38199 153.70234 172.26243 152.85055 172.26243 L 145.64945 172.26243 C 144.79766 172.26243 144.10635 169.38199 144.10635 165.83287 C 144.10635 162.28376 144.79766 159.403315 145.64945 159.403315" fill="white"/><path d="M 145.64945 159.403315 L 152.85055 159.403315 C 153.70234 159.403315 154.39365 162.28376 154.39365 165.83287 C 154.39365 169.38199 153.70234 172.26243 152.85055 172.26243 L 145.64945 172.26243 C 144.79766 172.26243 144.10635 169.38199 144.10635 165.83287 C 144.10635 162.28376 144.79766 159.403315 145.64945 159.403315" stroke="white" stroke-linecap="round" stroke-linejoin="round" stroke-width="2"/><line x1="155.81492" y1="159.34727" x2="142.68508" y2="159.21191" stroke="white" stroke-linecap="round" stroke-linejoin="round" stroke-width="2"/><path d="M 146.54282 158.61971 C 146.63305 158.02194 145.95635 157.11945 146.81354 156.8262 C 147.670725 156.53296 150.829275 156.56116 151.68646 156.86004 C 152.54365 157.15893 151.86695 158.033215 151.95718 158.61971" stroke="white" stroke-linecap="round" stroke-linejoin="round" stroke-width="1"/></g></g></svg>
