<?xml version="1.0"?>
<!DOCTYPE svg PUBLIC "-//W3C//DTD SVG 1.1//EN" "http://www.w3.org/Graphics/SVG/1.1/DTD/svg11.dtd">
<svg xmlns="http://www.w3.org/2000/svg" xmlns:xl="http://www.w3.org/1999/xlink" version="1.1" viewBox="180 153 25 25" width="25pt" height="25pt"><metadata xmlns:dc="http://purl.org/dc/elements/1.1/"><dc:date>2016-02-22 11:05Z</dc:date><!-- Produced by OmniGraffle Professional 5.4.4 --></metadata><defs></defs><g stroke="none" stroke-opacity="1" stroke-dasharray="none" fill="none" fill-opacity="1"><title>Canvas 1</title><g><title>Layer 1</title><circle cx="192.6385" cy="165.75" r="12.25002" fill="#167afe"/><path d="M 198.52699 166.25 C 198.52698 166.25005 197.56336 163.816465 195.53027 162.25349 C 193.49358 160.69263 190.19122 161.33035 190.19122 161.33035 L 190.53111 162.44552 C 190.6008 162.67418 190.47193 162.91604 190.24327 162.98574 C 190.12274 163.02247 189.9922 163.00486 189.88571 162.93751 L 186.97021 161.09345 C 186.73684 160.945835 186.66731 160.63698 186.81492 160.4036 C 186.8345 160.37265 186.85742 160.34394 186.88327 160.318 L 189.63636 157.55445 C 189.76839 157.42193 189.98285 157.42152 190.11537 157.55355 C 190.19405 157.63192 190.2293 157.74388 190.20973 157.8532 L 190.01892 158.91902 C 190.01904 158.91896 193.785 158.552625 196.09216 160.60419 C 198.4024 162.65412 198.52698 166.25011 198.52699 166.25 Z" fill="white"/><path d="M 186.75 166.25 C 186.75001 166.24996 187.69819 168.60665 189.6987 170.12024 C 191.70275 171.63179 194.95219 171.01422 194.95219 171.01422 L 194.61775 169.93428 C 194.5489 169.71192 194.67333 169.47585 194.89568 169.40699 C 195.0125 169.37081 195.13927 169.38716 195.24309 169.45179 L 198.10245 171.23172 C 198.33688 171.37766 198.40863 171.686 198.26269 171.92044 C 198.242 171.95368 198.21747 171.98438 198.18961 172.0119 L 195.49254 174.67637 C 195.36242 174.80491 195.15275 174.80363 195.02421 174.67352 C 194.94833 174.59671 194.91466 174.48774 194.93398 174.38151 L 195.12173 173.34936 C 195.12162 173.34942 191.41601 173.70418 189.14582 171.71743 C 186.8726 169.73227 186.75001 166.24989 186.75 166.25 Z" fill="white"/></g></g></svg>
